<?xml version="1.0" standalone="no"?><!DOCTYPE svg PUBLIC "-//W3C//DTD SVG 1.1//EN" "http://www.w3.org/Graphics/SVG/1.1/DTD/svg11.dtd"><svg t="1609589788505" class="icon" viewBox="0 0 2299 1024" version="1.1" xmlns="http://www.w3.org/2000/svg" p-id="2386" width="107.765625" height="48" xmlns:xlink="http://www.w3.org/1999/xlink"><defs><style type="text/css"></style></defs><path d="M1775.84 322.588c6.017 1.003 53.146-9.526 55.151-6.016 3.008 4.512 24.066 155.925 18.55 156.927s-44.62 10.028-44.62 10.028c-3.01-20.556-28.579-147.903-29.08-160.939m75.205-14.54l20.556 162.945c10.529-0.502 53.145-3.51 57.156-4.011-6.017-61.668-16.545-158.934-16.545-158.934-20.055-4.01-41.113-4.01-61.167 0m-40.61 226.117s92.752-23.564 126.344-12.033c17.046 61.668 48.13 407.611 51.139 421.65-21.057 2.506-90.246 8.523-95.761 10.027-4.512-26.071-81.723-403.1-81.723-419.644m343.436-207.566c5.515 1.504 54.65-5.014 55.15-1.504 1.003 12.033 6.017 157.429 0.502 157.93s-44.622 4.011-44.622 4.011c-1.002-20.054-12.032-146.9-11.03-160.437m75.707-4.011l4.01 160.939c10.53 0 52.644 2.507 57.156 2.005-1.002-61.668 0-158.933 0-158.933-20.054-3.51-40.61-5.014-61.166-4.011M2164.9 538.677s94.759-12.534 126.846 2.507c7.02 72.197 6.017 408.614 7.02 422.652-21.56 0-90.247 1.003-95.762 2.005-1.003-26.07-39.608-410.619-38.104-427.164m-220.1-413.627c54.65 278.76 96.263 755.058 97.767 785.641 0 0 43.117 1.003 91.75 4.011-28.578-300.319-63.674-780.127-63.172-795.669-12.033-13.537-126.345 6.017-126.345 6.017m-120.328 659.297c-10.528-78.213-290.29-166.955-447.72-138.377 0 0-19.553-172.47-27.074-339.426-6.518-143.39-1.003-282.77 0.501-305.833-10.528-7.52-123.837 46.627-185.004 69.188 0 0 73.2 309.845 126.345 952.597 0 0 84.73 9.025 230.127-19.052s317.365-115.816 302.825-219.097M1482.541 925.23l-24.567-176.983c6.017-3.008 156.928 53.145 172.972 63.173-2.507 11.03-148.405 113.81-148.405 113.81M610.665 322.588c6.016 1.003 53.144-9.526 55.15-6.016 3.008 4.512 24.066 155.925 18.55 156.927s-44.621 10.028-44.621 10.028c-3.008-20.556-28.578-147.903-29.08-160.939m75.206-14.54l20.556 162.945c10.528-0.502 53.145-3.51 57.155-4.011-6.517-61.668-16.545-158.934-16.545-158.934-20.054-4.01-41.112-4.01-61.166 0m-40.611 226.117s92.753-23.564 126.344-12.033c17.047 61.668 48.132 407.611 51.14 421.65-21.058 2.506-90.246 8.523-95.761 10.027-4.513-26.071-81.723-403.1-81.723-419.644m343.436-207.566c5.515 1.504 54.65-5.014 55.15-1.504 1.003 12.033 6.017 157.429 0.502 157.93s-44.622 4.011-44.622 4.011c-1.003-20.054-11.531-146.9-11.03-160.437m75.706-4.011l4.011 160.939c10.53 0 52.644 2.507 57.156 2.005-1.003-61.668 0-158.933 0-158.933-20.054-3.51-40.61-4.512-61.167-4.011m-64.676 216.089s94.758-12.534 126.846 2.507c7.02 72.197 6.016 408.614 7.02 422.652-21.56 0-90.247 1.003-95.762 2.005-0.501-26.07-39.608-410.619-38.104-427.164m-220.1-413.627c54.65 278.76 96.263 755.058 97.767 785.641 0 0 43.117 1.003 91.75 4.011-28.578-300.319-63.674-780.127-63.172-796.17-12.033-13.036-126.345 6.518-126.345 6.518M659.297 784.347c-10.529-78.213-290.291-166.955-447.72-138.377 0 0-19.554-172.47-27.074-339.426-6.518-143.39-1.003-282.77 0.501-305.833C174.476-6.31 61.167 47.338 0 69.899c0 0 73.2 309.845 126.344 952.597 0 0 84.731 9.025 230.128-19.052s317.365-115.816 302.825-219.097M317.365 925.23l-24.567-176.983c6.017-3.008 156.928 53.145 172.972 63.173-2.507 11.03-148.405 113.81-148.405 113.81" fill="#1296DB" p-id="2387"></path></svg>