<?xml version="1.0" standalone="no"?><!DOCTYPE svg PUBLIC "-//W3C//DTD SVG 1.1//EN" "http://www.w3.org/Graphics/SVG/1.1/DTD/svg11.dtd"><svg t="1609567350808" class="icon" viewBox="0 0 1024 1024" version="1.1" xmlns="http://www.w3.org/2000/svg" p-id="6593" width="20" height="20" xmlns:xlink="http://www.w3.org/1999/xlink"><defs><style type="text/css"></style></defs><path d="M726.86554027 407.5330368c-8.73813333 28.52029653-25.85031147 54.37060693-51.70062186 78.40047467-8.98085973 8.3740448-21.72397013 11.04402987-33.25345174 6.91768853-11.4081184-4.12634027-19.4180736-14.07810347-21.1171552-26.0930368-10.80130347-79.85682987-95.0272-172.45677013-131.80017813-201.826608-7.88859307 108.3771264-66.74962987 208.50157013-95.63401493 257.77493334-4.12634027 7.03905173-7.64586667 12.9858368-10.31585174 17.84035626-5.94678507 10.67994027-16.99081493 17.59762987-29.3698368 17.23354027-12.25765973-0.1213632-23.42305173-6.7963264-29.12711146-17.59762987-1.94180693-3.76225173-4.36906667-8.2526816-7.03905174-13.47128853-5.33997013-10.43721493-11.89357013-23.1803264-19.05398506-35.9234368-51.94334827 87.25997013-88.7163264 204.13250347-12.9858368 308.74737707 1.6990816 2.30589653 2.91271147 4.8545184 3.76225173 7.52450453 1.6990816 2.30589653 3.5195264 4.61179307 5.46133333 6.91768853 13.2285632 16.2626368 28.52029653 30.70482987 45.7538368 43.20521494 2.79134827 0.97090347 5.33997013 2.30589653 7.76722987 4.24770346 4.00497813 3.1554368 8.1313184 6.06814827 12.25765867 8.98085974 8.1313184 4.8545184 16.6267264 9.34494827 25.48622293 13.47128853l-0.72817813 1.5777184c43.81202987 23.30168853 96.96900693 36.77297813 147.09191146 36.0448 60.92420693-0.72817813 114.8093632-18.44717013 168.93724374-55.34151147 13.1072-10.31585173 34.10299307-29.2484736 56.0696896-58.6183104 0.97090347-3.0340736 2.42725973-6.06814827 4.4904288-8.73813333 114.32391147-146.97054827 26.94257813-314.6941632-34.95253334-391.27419307z" fill="#A3A3A3" p-id="6594"></path><path d="M294.81339307 813.9776c-75.85185173-104.6148736-48.18109653-235.9296 3.64088854-323.18957013 7.16041493 12.74311147 13.71401493 25.36485973 19.05398506 35.9234368 2.66998507 5.21860693 5.0972448 9.8304 7.03905174 13.47128853 5.70405973 10.80130347 16.99081493 17.59762987 29.12711146 17.59762987 12.37902187 0.2427264 23.54441493-6.5536 29.3698368-17.23354027 2.66998507-4.7331552 6.06814827-10.67994027 10.31585174-17.84035626 28.88438507-49.2733632 87.74542187-149.39780693 95.63401493-257.77493334 36.65161493 29.2484736 120.9988736 121.96977813 131.80017813 201.826608 1.5777184 12.01493333 9.7090368 21.96669653 21.1171552 26.0930368 11.5294816 4.12634027 24.27259307 1.4563552 33.25345174-6.91768853 25.85031147-24.02986667 42.8411264-49.88017813 51.70062186-78.40047467 61.89511147 76.58002987 150.8541632 244.3036448 36.77297814 391.27419307-2.06317013 2.66998507-3.3981632 5.33997013-6.06814827 8.85949653-21.84533333 29.2484736-42.96248853 48.30245973-56.06968853 58.6183104-54.1278816 36.89434027-108.1344 54.49197013-168.9372448 55.34151147-50.00154027 0.72817813-103.2798816-12.74311147-147.0919104-36.0448-8.85949653-4.12634027-16.6267264-10.0731264-24.7580448-14.9276448-6.91768853-4.12634027-13.71401493-8.61677013-20.14625174-13.2285632-17.23354027-12.74311147-32.5252736-27.18530347-45.7538368-43.44794027" fill="#A3A3A3" p-id="6595"></path><path d="M751.13813334 346.8515552c-8.73813333 28.52029653-25.85031147 54.37060693-51.70062187 78.40047467-8.98085973 8.3740448-21.72397013 11.04402987-33.25345173 6.91768853-11.4081184-4.12634027-19.4180736-14.07810347-21.11715627-26.0930368-10.80130347-79.85682987-95.0272-172.45677013-131.80017706-201.826608-7.88859307 108.3771264-66.74962987 208.50157013-95.63401494 257.77493334-4.12634027 7.03905173-7.64586667 12.9858368-10.31585173 17.84035626-5.94678507 10.67994027-16.99081493 17.59762987-29.36983787 17.23354027-12.25765973-0.1213632-23.42305173-6.7963264-29.1271104-17.59762987-1.94180693-3.76225173-4.36906667-8.2526816-7.03905173-13.47128853-5.33997013-10.43721493-11.89357013-23.1803264-19.05398613-35.9234368-51.94334827 87.25997013-88.7163264 204.13250347-12.9858368 308.74737813 1.6990816 2.30589653 2.91271147 4.8545184 3.76225173 7.52450347 1.6990816 2.30589653 3.5195264 4.61179307 5.46133333 6.91768853 13.2285632 16.2626368 28.52029653 30.70482987 45.75383787 43.20521494 2.79134827 0.97090347 5.33997013 2.30589653 7.7672288 4.24770346 4.00497813 3.1554368 8.1313184 6.06814827 12.25765973 8.98085974 8.1313184 4.8545184 16.6267264 9.34494827 25.48622187 13.47128853l-0.72817707 1.5777184c43.81202987 23.30168853 96.96900693 36.77297813 147.0919104 36.0448 60.92420693-0.72817813 114.8093632-18.44717013 168.9372448-55.3415104 13.1072-10.31585173 34.10299307-29.2484736 56.06968854-58.61831147 0.97090347-3.0340736 2.42725973-6.06814827 4.49042986-8.73813333 114.32391147-146.97054827 26.94257813-314.6941632-34.95253333-391.27419307z" fill="#FFD44D" p-id="6596"></path><path d="M319.08598507 753.2961184c-75.85185173-104.6148736-48.18109653-235.9296 3.64088854-323.18957013 7.16041493 12.74311147 13.71401493 25.36485973 19.05398613 35.9234368 2.66998507 5.21860693 5.0972448 9.8304 7.03905173 13.47128853 5.70405973 10.80130347 16.99081493 17.59762987 29.1271104 17.59762987 12.37902187 0.2427264 23.54441493-6.5536 29.36983787-17.23354027 2.66998507-4.7331552 6.06814827-10.67994027 10.31585173-17.84035626 28.88438507-49.2733632 87.74542187-149.39780693 95.63401494-257.77493334 36.65161493 29.2484736 120.9988736 121.96977813 131.80017706 201.826608 1.5777184 12.01493333 9.7090368 21.96669653 21.11715627 26.0930368 11.5294816 4.12634027 24.27259307 1.4563552 33.25345173-6.91768853 25.85031147-24.02986667 42.8411264-49.88017813 51.70062187-78.40047467 61.89511147 76.58002987 150.8541632 244.3036448 36.77297813 391.27419307-2.06317013 2.66998507-3.3981632 5.33997013-6.06814826 8.85949653-21.84533333 29.2484736-42.96248853 48.30245973-56.0696896 58.6183104-54.1278816 36.89434027-108.1344 54.49197013-168.93724374 55.34151147-50.00154027 0.72817813-103.2798816-12.74311147-147.09191146-36.0448-8.85949653-4.12634027-16.6267264-10.0731264-24.7580448-14.9276448-6.91768853-4.12634027-13.71401493-8.61677013-20.14625174-13.22856213-17.23354027-12.74311147-32.5252736-27.18530347-45.7538368-43.44794134" fill="#FFD44D" p-id="6597"></path><path d="M310.83330347 524.40557014c0.1213632 5.0972448 4.24770347 9.22358507 9.46631147 9.10222293 5.0972448-0.1213632 9.22358507-4.24770347 9.10222187-9.46631147-0.1213632-5.0972448-4.24770347-9.22358507-9.4663104-9.10222186-5.0972448 0.1213632-9.10222187 4.36906667-9.10222294 9.4663104zM318.72189654 440.78648854c3.1554368 0 5.94678507-1.6990816 7.64586667-4.24770347-0.72817813-1.21362987-1.33499307-2.54862187-2.06317014-3.76225173-0.60681493-1.21362987-2.42725973-1.21362987-3.03407466 0-1.4563552 2.54862187-3.0340736 5.21860693-4.49042987 7.88859306 0.60681493 0 1.33499307 0.1213632 1.941808 0.12136214zM458.65339307 484.8412448c5.0972448-0.1213632 9.22358507-4.24770347 9.10222187-9.46631146-0.1213632-5.0972448-4.36906667-9.22358507-9.46631147-9.10222187-5.0972448 0.1213632-9.22358507 4.36906667-9.10222186 9.4663104 0.1213632 5.0972448 4.36906667 9.22358507 9.46631146 9.10222293zM505.49949654 511.90518507c-5.0972448 0.1213632-9.22358507 4.36906667-9.10222293 9.46631147 0.1213632 5.0972448 4.24770347 9.22358507 9.46631146 9.10222186 5.0972448-0.1213632 9.22358507-4.24770347 9.10222187-9.46631146-0.1213632-5.0972448-4.24770347-9.10222187-9.4663104-9.10222187zM504.04314027 419.1838816c-5.0972448 0.1213632-9.22358507 4.36906667-9.10222186 9.46631147 0.1213632 5.0972448 4.24770347 9.22358507 9.46631146 9.10222187 5.0972448-0.1213632 9.22358507-4.24770347 9.10222187-9.46631147-0.1213632-5.0972448-4.36906667-9.22358507-9.46631147-9.10222187zM413.02091841 532.0514368c5.0972448-0.1213632 9.22358507-4.24770347 9.10222186-9.4663104-0.1213632-5.0972448-4.24770347-9.22358507-9.4663104-9.10222293-5.0972448 0.1213632-9.22358507 4.36906667-9.10222293 9.46631147 0.1213632 5.0972448 4.36906667 9.10222187 9.46631147 9.10222186zM367.14571841 560.57173334c-1.94180693 0-3.64088853 0.60681493-5.21860694 1.6990816-0.48545173 0.36408853-0.97090347 0.72817813-1.33499306 1.21362986-0.84954027 0.84954027-1.4563552 1.8204448-1.94180694 3.0340736-0.2427264 0.60681493-0.36408853 1.09226667-0.48545173 1.6990816s-0.1213632 1.21362987-0.1213632 1.8204448c0 0.36408853 0 0.72817813 0.1213632 1.09226667 0.36408853 3.0340736 2.30589653 5.58269653 4.8545184 6.91768853 1.33499307 0.72817813 2.79134827 1.09226667 4.4904288 1.09226667 0.48545173 0 0.84954027 0 1.33499307-0.1213632 2.06317013-0.36408853 3.76225173-1.33499307 5.21860693-2.66998507 0.97090347-1.09226667 1.8204448-2.42725973 2.18453333-3.88361493 0-0.1213632 0-0.2427264 0.1213632-0.36408853 0.1213632-0.2427264 0.1213632-0.48545173 0.1213632-0.72817814 0.1213632-0.48545173 0.1213632-1.09226667 0.1213632-1.5777184 0-2.54862187-1.09226667-4.8545184-2.79134826-6.5536-1.8204448-1.6990816-4.12634027-2.66998507-6.6749632-2.66998506zM502.46542187 326.34121494c-5.0972448 0.1213632-9.22358507 4.36906667-9.10222186 9.46631146 0.1213632 5.0972448 4.24770347 9.22358507 9.46631146 9.10222187 5.0972448-0.1213632 9.22358507-4.24770347 9.10222187-9.46631147-0.1213632-5.0972448-4.24770347-9.10222187-9.46631147-9.10222186zM510.35401494 242.72213334c0-1.5777184-0.48545173-3.0340736-1.09226667-4.24770347-0.60681493 3.88361493-1.33499307 7.64586667-2.06317013 11.5294816 1.94180693-1.8204448 3.2768-4.36906667 3.1554368-7.28177813zM465.69244481 386.2945184c0.48545173-1.09226667 0.72817813-2.30589653 0.72817706-3.64088853 0-0.36408853 0-0.60681493-0.12136213-0.97090347-0.1213632-1.21362987-0.48545173-2.42725973-1.09226667-3.3981632-0.36408853-0.60681493-0.72817813-1.21362987-1.21362986-1.6990816-2.54862187 5.33997013-4.9758816 10.43721493-7.52450347 15.41309654h0.84954027c3.64088853 0 6.91768853-2.30589653 8.3740448-5.70405974zM653.44094827 472.34085974c-0.1213632-5.0972448-4.36906667-9.22358507-9.46631146-9.10222294-5.0972448 0.1213632-9.22358507 4.36906667-9.10222187 9.46631147 0.1213632 5.0972448 4.24770347 9.22358507 9.46631147 9.10222187 4.9758816-0.1213632 9.10222187-4.24770347 9.10222186-9.4663104zM691.42755521 527.4396448c5.0972448-0.1213632 9.22358507-4.24770347 9.10222293-9.46631146-0.1213632-5.0972448-4.24770347-9.22358507-9.46631147-9.10222187-5.0972448 0.1213632-9.22358507 4.36906667-9.10222186 9.4663104 0.1213632 5.0972448 4.36906667 9.22358507 9.4663104 9.10222293zM698.95205974 425.7374816c-4.12634027 3.76225173-9.10222187 6.18951147-14.32082987 7.52450347 1.4563552 0.97090347 3.2768 1.4563552 5.21860694 1.4563552 4.9758816-0.1213632 8.98085973-4.12634027 9.10222293-8.98085867zM598.58488854 529.0173632c5.0972448-0.1213632 9.22358507-4.24770347 9.10222293-9.46631146-0.1213632-5.0972448-4.24770347-9.22358507-9.46631146-9.10222187-5.0972448 0.1213632-9.22358507 4.36906667-9.10222187 9.4663104 0.1213632 5.0972448 4.36906667 9.10222187 9.4663104 9.10222293zM597.12853334 436.17469654c5.0972448-0.1213632 9.22358507-4.24770347 9.10222187-9.46631147-0.1213632-5.0972448-4.24770347-9.22358507-9.4663104-9.10222187-5.0972448 0.1213632-9.22358507 4.36906667-9.10222294 9.4663104 0.1213632 5.0972448 4.36906667 9.22358507 9.46631147 9.10222294zM551.49605974 483.38488854c5.0972448-0.1213632 9.22358507-4.24770347 9.10222187-9.4663104-0.1213632-5.0972448-4.24770347-9.22358507-9.46631147-9.10222294-5.0972448 0.1213632-9.22358507 4.36906667-9.10222187 9.46631147 0.1213632 5.0972448 4.36906667 9.10222187 9.46631147 9.10222187zM604.65303681 333.9870816c-0.1213632-5.0972448-4.24770347-9.22358507-9.4663104-9.10222186-5.0972448 0.1213632-9.22358507 4.36906667-9.10222294 9.4663104 0.1213632 5.0972448 4.24770347 9.22358507 9.46631147 9.10222293 5.0972448-0.1213632 9.22358507-4.36906667 9.10222187-9.46631147zM634.75105174 374.7650368c-0.97090347 1.4563552-1.5777184 3.2768-1.4563552 5.218608 0 1.33499307 0.2427264 2.54862187 0.72817707 3.64088854 1.33499307 3.0340736 4.24770347 5.21860693 7.76722986 5.46133333-1.33499307-5.46133333-3.0340736-10.92266667-4.9758816-16.5053632-0.36408853 0.2427264-0.60681493 0.48545173-0.84954026 0.84954133-0.48545173 0.36408853-0.84954027 0.72817813-1.21362987 1.334992zM548.46198507 297.8209184c5.0972448-0.1213632 9.22358507-4.24770347 9.10222187-9.46631146-0.1213632-5.0972448-4.24770347-9.22358507-9.4663104-9.10222187-5.0972448 0.1213632-9.22358507 4.36906667-9.10222293 9.46631147 0.1213632 5.0972448 4.36906667 9.10222187 9.46631146 9.10222186zM549.91834027 390.54222187c3.88361493-0.1213632 7.16041493-2.42725973 8.495408-5.82542187 0.48545173-1.09226667 0.72817813-2.30589653 0.72817814-3.64088853 0-1.5777184-0.48545173-3.1554368-1.21362987-4.36906667-0.48545173-0.72817813-0.97090347-1.4563552-1.5777184-2.0631712-1.6990816-1.6990816-4.00497813-2.66998507-6.5536-2.66998506-2.54862187 0-4.8545184 1.09226667-6.5536 2.79134826-0.36408853 0.48545173-0.72817813 0.84954027-1.09226667 1.33499307-0.97090347 1.4563552-1.5777184 3.2768-1.45635626 5.21860693 0 1.33499307 0.2427264 2.54862187 0.72817813 3.6408896a8.85949653 8.85949653 0 0 0 8.49540693 5.58269547zM820.43638507 469.6708736c0 2.66998507 1.21362987 5.0972448 3.1554368 6.7963264-0.97090347-2.79134827-1.94180693-5.58269653-3.0340736-8.3740448-0.1213632 0.48545173-0.2427264 0.97090347-0.1213632 1.5777184zM784.14885974 525.98328854c5.0972448-0.1213632 9.22358507-4.24770347 9.10222187-9.4663104-0.1213632-5.0972448-4.24770347-9.22358507-9.46631147-9.10222294-5.0972448 0.1213632-9.22358507 4.36906667-9.10222187 9.46631147 0.1213632 5.0972448 4.36906667 9.10222187 9.46631147 9.10222187zM782.69250347 433.14062187c5.0972448-0.1213632 9.22358507-4.24770347 9.10222294-9.4663104-0.1213632-5.0972448-4.24770347-9.22358507-9.46631147-9.10222293-5.0972448 0.1213632-9.22358507 4.36906667-9.10222187 9.46631146 0.1213632 5.0972448 4.24770347 9.22358507 9.4663104 9.10222187zM737.06002987 480.35081494c5.0972448-0.1213632 9.22358507-4.24770347 9.10222187-9.46631147-0.1213632-5.0972448-4.24770347-9.22358507-9.46631147-9.10222187-5.0972448 0.1213632-9.22358507 4.36906667-9.10222186 9.46631147 0.1213632 5.0972448 4.36906667 9.10222187 9.46631146 9.10222187zM735.48231147 387.50814827c0.48545173 0 0.97090347 0 1.4563552-0.1213632 3.1554368-0.48545173 5.82542187-2.79134827 7.03905174-5.70405867 0.48545173-1.09226667 0.72817813-2.30589653 0.72817813-3.6408896 0-1.5777184-0.48545173-3.1554368-1.21362987-4.36906666-0.48545173-0.72817813-0.97090347-1.4563552-1.5777184-2.06317014-0.1213632-0.1213632-0.36408853-0.2427264-0.48545173-0.48545173-2.30589653 4.49042987-4.7331552 8.85949653-7.40314133 13.2285632-0.36408853 0.60681493-0.84954027 1.21362987-1.2136288 1.94180693-0.1213632 0.2427264-0.2427264 0.48545173-0.4854528 0.72817814 0.84954027 0.36408853 2.06317013 0.48545173 3.15543786 0.48545173zM323.09096321 700.50322987c-5.0972448 0.1213632-9.22358507 4.36906667-9.10222294 9.4663104 0.1213632 5.0972448 4.24770347 9.22358507 9.46631147 9.10222293 5.0972448-0.1213632 9.22358507-4.24770347 9.10222187-9.46631146-0.1213632-5.0972448-4.36906667-9.10222187-9.4663104-9.10222187zM321.87733334 626.35045974c5.0972448-0.1213632 9.22358507-4.24770347 9.10222187-9.46631147-0.1213632-5.0972448-4.24770347-9.22358507-9.4663104-9.10222187-5.0972448 0.1213632-9.22358507 4.36906667-9.10222294 9.4663104 0 5.0972448 4.24770347 9.10222187 9.46631147 9.10222294zM557.56420694 854.39146667c5.0972448-0.1213632 9.22358507-4.24770347 9.10222293-9.46631147-0.1213632-5.0972448-4.24770347-9.22358507-9.46631146-9.10222186-5.0972448 0.1213632-9.22358507 4.36906667-9.10222187 9.46631146 0.1213632 5.21860693 4.36906667 9.22358507 9.4663104 9.10222187zM473.94512641 846.5028736c-0.1213632-5.0972448-4.36906667-9.22358507-9.46631147-9.10222186-4.24770347 0.1213632-7.76722987 3.0340736-8.85949653 6.91768853 0.1213632 0 0.36408853 0.1213632 0.48545173 0.1213632l2.18453333 0.72817813c0.72817813 0.2427264 1.5777184 0.48545173 2.30589654 0.72817814l2.18453333 0.72817706c0.72817813 0.2427264 1.5777184 0.48545173 2.30589653 0.72817814l2.18453334 0.72817813c0.84954027 0.2427264 1.5777184 0.48545173 2.42725866 0.72817707 0.72817813 0.2427264 1.4563552 0.48545173 2.18453334 0.60681493 0.36408853 0.1213632 0.84954027 0.2427264 1.21362986 0.36408853 0.60681493-0.97090347 0.84954027-2.06317013 0.84954134-3.2768zM510.11128854 790.31182187c-5.0972448 0.1213632-9.22358507 4.36906667-9.10222187 9.46631147 0.1213632 5.0972448 4.24770347 9.22358507 9.46631147 9.10222186 5.0972448-0.1213632 9.22358507-4.24770347 9.10222187-9.4663104-0.1213632-5.0972448-4.36906667-9.22358507-9.46631147-9.10222293zM417.38998507 791.76817814c-5.0972448 0.1213632-9.22358507 4.36906667-9.10222186 9.4663104 0.1213632 5.0972448 4.24770347 9.22358507 9.4663104 9.10222293 5.0972448-0.1213632 9.22358507-4.24770347 9.10222293-9.46631147-0.2427264-5.0972448-4.36906667-9.22358507-9.46631147-9.10222186zM461.68746667 670.40521494c5.0972448-0.1213632 9.22358507-4.24770347 9.10222187-9.46631147-0.1213632-5.0972448-4.36906667-9.22358507-9.4663104-9.10222187-5.0972448 0.1213632-9.22358507 4.36906667-9.10222293 9.46631147 0.1213632 5.0972448 4.36906667 9.22358507 9.46631146 9.10222187zM517.99988161 706.57137814c-0.1213632-5.0972448-4.24770347-9.22358507-9.46631147-9.10222294-5.0972448 0.1213632-9.22358507 4.36906667-9.10222187 9.46631147 0.1213632 5.0972448 4.24770347 9.22358507 9.46631147 9.10222187 5.0972448-0.1213632 9.22358507-4.24770347 9.10222187-9.4663104zM507.07721494 604.74785174c-5.0972448 0.1213632-9.22358507 4.36906667-9.10222187 9.46631146 0.1213632 5.0972448 4.24770347 9.22358507 9.4663104 9.10222187 5.0972448-0.1213632 9.22358507-4.24770347 9.10222294-9.46631147-0.1213632-5.0972448-4.36906667-9.22358507-9.46631147-9.10222186zM406.71004481 708.39182187c0.1213632 5.0972448 4.24770347 9.22358507 9.4663104 9.10222293 5.0972448-0.1213632 9.22358507-4.24770347 9.10222293-9.46631146-0.1213632-5.0972448-4.24770347-9.22358507-9.46631147-9.10222187-5.0972448 0.1213632-9.22358507 4.36906667-9.10222186 9.4663104zM414.23454827 606.20420694c-5.0972448 0.1213632-9.22358507 4.36906667-9.10222186 9.46631146 0.1213632 5.0972448 4.24770347 9.22358507 9.4663104 9.10222187 5.0972448-0.1213632 9.22358507-4.24770347 9.10222293-9.4663104-0.1213632-5.0972448-4.24770347-9.10222187-9.46631147-9.10222293zM459.62429654 762.51970347c1.09226667 0.48545173 2.30589653 0.72817813 3.64088853 0.72817813s2.54862187-0.2427264 3.64088854-0.72817813c3.2768-1.4563552 5.58269653-4.8545184 5.58269653-8.61677013 0-1.33499307-0.2427264-2.54862187-0.84954027-3.64088854-0.97090347-2.18453333-2.79134827-4.00497813-4.9758816-4.8545184-1.09226667-0.48545173-2.30589653-0.72817813-3.64088853-0.72817813s-2.54862187 0.2427264-3.6408896 0.72817813c-2.18453333 0.97090347-4.00497813 2.79134827-4.8545184 4.97588054-0.48545173 1.09226667-0.72817813 2.30589653-0.72817813 3.6408896 0.1213632 3.88361493 2.42725973 7.16041493 5.82542293 8.49540693zM368.60207361 653.4144c-5.0972448 0.1213632-9.22358507 4.36906667-9.10222187 9.46631147 0.1213632 5.0972448 4.24770347 9.22358507 9.46631147 9.10222187 5.0972448-0.1213632 9.22358507-4.24770347 9.10222186-9.46631147-0.1213632-5.0972448-4.24770347-9.22358507-9.46631146-9.10222187zM373.82068161 746.8638816c-1.09226667-0.48545173-2.30589653-0.72817813-3.64088854-0.72817813s-2.54862187 0.2427264-3.6408896 0.72817813c-2.18453333 0.97090347-4.00497813 2.79134827-4.8545184 4.9758816-0.48545173 1.09226667-0.72817813 2.30589653-0.72817813 3.64088854 0.1213632 3.88361493 2.42725973 7.16041493 5.82542293 8.495408 1.09226667 0.48545173 2.30589653 0.72817813 3.64088854 0.72817706s2.54862187-0.2427264 3.64088853-0.72817706c3.2768-1.4563552 5.58269653-4.8545184 5.58269653-8.6167712 0-1.33499307-0.2427264-2.54862187-0.84954026-3.64088854-0.97090347-2.18453333-2.79134827-4.00497813-4.9758816-4.8545184zM455.74068161 576.5916448c0.1213632 0.1213632 0.36408853 0.1213632 0.48545173 0.24272534 0.1213632 0 0.2427264 0.1213632 0.2427264 0.1213632 1.09226667 0.48545173 2.30589653 0.72817813 3.64088853 0.72817813 2.42725973 0 4.7331552-1.09226667 6.3108736-2.66998507 0.1213632-0.1213632 0.2427264-0.2427264 0.3640896-0.4854528 1.5777184-1.6990816 2.42725973-3.88361493 2.42725867-6.3108736 0-2.18453333-0.84954027-4.24770347-2.18453333-5.82542186-0.2427264-0.2427264-0.36408853-0.48545173-0.60681494-0.60681494-1.6990816-1.6990816-4.00497813-2.66998507-6.5536-2.54862293-1.94180693 0-3.64088853 0.60681493-5.21860693 1.6990816-0.48545173 0.36408853-0.97090347 0.72817813-1.33499307 1.21362987-0.84954027 0.84954027-1.4563552 1.8204448-1.94180693 3.03407466-0.48545173 1.09226667-0.72817813 2.30589653-0.72817813 3.64088854 0 0.48545173 0 0.84954027 0.1213632 1.21362986 0.60681493 2.66998507 2.42725973 5.21860693 4.9758816 6.5536zM650.04278507 834.36657814c-5.0972448 0.1213632-9.22358507 4.36906667-9.10222186 9.4663104 0 1.21362987 0.2427264 2.42725973 0.72817706 3.5195264 5.82542187-1.8204448 11.6508448-3.88361493 17.47626667-6.18951147-1.09226667-4.00497813-4.8545184-6.91768853-9.10222187-6.79632533zM695.67525974 787.15638507c-5.0972448 0.1213632-9.22358507 4.36906667-9.10222293 9.46631147 0.1213632 5.0972448 4.24770347 9.22358507 9.46631146 9.10222186 5.0972448-0.1213632 9.22358507-4.24770347 9.10222187-9.46631146-0.1213632-4.9758816-4.36906667-9.10222187-9.4663104-9.10222187zM603.19668161 807.3026368c5.0972448-0.1213632 9.22358507-4.24770347 9.10222186-9.4663104-0.1213632-5.0972448-4.24770347-9.22358507-9.4663104-9.10222293-5.0972448 0.1213632-9.22358507 4.36906667-9.10222293 9.46631147 0.1213632 5.0972448 4.36906667 9.22358507 9.46631147 9.10222186zM647.00871147 648.80260694c-5.0972448 0.1213632-9.22358507 4.36906667-9.10222293 9.46631146 0.1213632 5.0972448 4.24770347 9.22358507 9.46631147 9.10222187 5.0972448-0.1213632 9.22358507-4.24770347 9.10222186-9.4663104-0.1213632-5.0972448-4.36906667-9.22358507-9.4663104-9.10222293zM694.46162987 713.00361494c5.0972448-0.1213632 9.22358507-4.24770347 9.10222187-9.46631147-0.1213632-5.0972448-4.24770347-9.22358507-9.46631147-9.10222187-5.0972448 0.1213632-9.22358507 4.36906667-9.10222186 9.46631147 0.1213632 5.0972448 4.36906667 9.22358507 9.46631146 9.10222187zM702.10749654 610.816c-0.1213632-5.0972448-4.24770347-9.22358507-9.46631147-9.10222186-5.0972448 0.1213632-9.22358507 4.36906667-9.10222186 9.4663104 0.1213632 5.0972448 4.24770347 9.22358507 9.4663104 9.10222293 5.0972448-0.1213632 9.10222187-4.36906667 9.10222293-9.46631147zM601.61896321 714.45997014c5.0972448-0.1213632 9.22358507-4.24770347 9.10222186-9.4663104-0.1213632-5.0972448-4.24770347-9.22358507-9.46631146-9.10222294-5.0972448 0.1213632-9.22358507 4.36906667-9.10222187 9.46631147 0.1213632 5.21860693 4.36906667 9.22358507 9.46631147 9.10222187zM600.16260694 621.73866667c5.0972448-0.1213632 9.22358507-4.24770347 9.10222293-9.46631147-0.1213632-5.0972448-4.24770347-9.22358507-9.46631146-9.10222186-5.0972448 0.1213632-9.22358507 4.36906667-9.10222187 9.46631146 0.1213632 5.0972448 4.36906667 9.22358507 9.4663104 9.10222187zM652.10595521 742.25208854c-1.09226667-0.48545173-2.30589653-0.72817813-3.64088854-0.72817707s-2.54862187 0.2427264-3.64088853 0.72817707c-2.18453333 0.97090347-4.00497813 2.79134827-4.8545184 4.9758816-0.48545173 1.09226667-0.72817813 2.30589653-0.72817813 3.6408896 0.1213632 3.88361493 2.42725973 7.16041493 5.82542186 8.49540693 1.09226667 0.48545173 2.30589653 0.72817813 3.6408896 0.72817813s2.54862187-0.2427264 3.64088854-0.72817813c3.2768-1.4563552 5.58269653-4.8545184 5.58269653-8.61677013 0-1.33499307-0.2427264-2.54862187-0.84954133-3.6408896-0.84954027-2.18453333-2.66998507-3.88361493-4.9758816-4.8545184zM554.53013334 668.94885974c5.0972448-0.1213632 9.22358507-4.24770347 9.10222187-9.46631147-0.1213632-5.0972448-4.24770347-9.22358507-9.4663104-9.10222187-5.0972448 0.1213632-9.22358507 4.36906667-9.10222294 9.4663104 0.1213632 5.0972448 4.36906667 9.10222187 9.46631147 9.10222294zM552.46696321 760.94198507c1.09226667 0.48545173 2.30589653 0.72817813 3.64088853 0.72817813s2.54862187-0.2427264 3.64088853-0.72817813c3.2768-1.4563552 5.58269653-4.8545184 5.58269654-8.61677013 0-1.33499307-0.2427264-2.54862187-0.72817707-3.64088854-0.97090347-2.18453333-2.79134827-4.00497813-4.9758816-4.85451946-1.09226667-0.48545173-2.30589653-0.72817813-3.6408896-0.72817707s-2.54862187 0.2427264-3.64088853 0.72817707c-2.18453333 0.97090347-4.00497813 2.79134827-4.8545184 4.9758816-0.48545173 1.09226667-0.72817813 2.30589653-0.72817814 3.6408896-0.1213632 3.88361493 2.30589653 7.16041493 5.70405974 8.49540693zM653.19822187 559.9649184c-0.48545173-0.72817813-1.09226667-1.33499307-1.82044373-1.94180693-1.5777184-1.33499307-3.64088853-2.06317013-5.94678507-2.0631712-1.33499307 0-2.54862187 0.2427264-3.6408896 0.72817813-1.33499307 0.60681493-2.54862187 1.5777184-3.51952533 2.66998507-0.2427264 0.2427264-0.36408853 0.48545173-0.48545173 0.72817813-0.97090347 1.4563552-1.5777184 3.2768-1.45635627 5.21860694 0 0.48545173 0 0.84954027 0.1213632 1.21362986 0.36408853 2.79134827 2.06317013 5.0972448 4.36906667 6.5536 1.4563552 0.84954027 3.1554368 1.33499307 4.9758816 1.33499307 0.36408853 0 0.60681493 0 0.97090346-0.1213632 2.06317013-0.2427264 4.00497813-1.21362987 5.33997014-2.54862187 1.4563552-1.4563552 2.54862187-3.3981632 2.79134826-5.70405973 0-0.36408853 0.1213632-0.72817813 0-1.09226667 0-1.5777184-0.48545173-3.1554368-1.21362986-4.36906666-0.1213632-0.1213632-0.2427264-0.36408853-0.48545174-0.60681494zM548.58334827 575.0139264c1.33499307 0.72817813 2.79134827 1.09226667 4.49042987 1.09226667 2.18453333 0 4.24770347-0.84954027 5.82542187-2.18453333 0.2427264-0.2427264 0.48545173-0.36408853 0.72817813-0.60681494 0.60681493-0.60681493 1.09226667-1.21362987 1.4563552-1.941808l0.36408853-0.72817706c0.1213632-0.1213632 0.1213632-0.2427264 0.1213632-0.3640896 0.1213632-0.36408853 0.2427264-0.84954027 0.36408854-1.21362987 0-0.2427264 0.1213632-0.48545173 0.1213632-0.60681387 0.1213632-0.48545173 0.1213632-1.09226667 0.1213632-1.57771946 0-1.33499307-0.2427264-2.54862187-0.72817814-3.64088854-1.4563552-3.2768-4.8545184-5.58269653-8.61677013-5.58269653-0.97090347 0-1.94180693 0.1213632-2.79134827 0.48545173-0.60681493 0.2427264-1.09226667 0.48545173-1.6990816 0.72817814-0.2427264 0.1213632-0.48545173 0.36408853-0.72817706 0.48545173-2.42725973 1.6990816-4.00497813 4.61179307-4.00497814 7.76722987 0 0.48545173 0 0.84954027 0.1213632 1.21362986 0.36408853 2.91271147 2.30589653 5.33997013 4.8545184 6.6749632zM832.57268161 645.76853334c-5.0972448 0.1213632-9.22358507 4.36906667-9.10222187 9.46631146 0 3.2768 1.8204448 6.06814827 4.36906667 7.7672288 1.94180693-5.70405973 3.76225173-11.4081184 5.33997013-17.11217706-0.2427264-0.1213632-0.48545173-0.1213632-0.60681493-0.1213632zM787.18293334 711.42589654c5.0972448-0.1213632 9.22358507-4.24770347 9.10222187-9.46631147-0.1213632-5.0972448-4.24770347-9.22358507-9.4663104-9.10222187-5.0972448 0.1213632-9.22358507 4.36906667-9.10222294 9.4663104 0.1213632 5.21860693 4.36906667 9.22358507 9.46631147 9.10222294zM785.72657814 618.70459307c5.0972448-0.1213632 9.22358507-4.24770347 9.10222187-9.46631147-0.1213632-5.0972448-4.24770347-9.22358507-9.46631147-9.10222186-5.0972448 0.1213632-9.22358507 4.36906667-9.10222187 9.4663104 0.1213632 5.0972448 4.24770347 9.22358507 9.46631147 9.10222293zM740.09410347 665.79342187c5.0972448-0.1213632 9.22358507-4.24770347 9.10222294-9.4663104-0.1213632-5.0972448-4.24770347-9.22358507-9.46631147-9.10222293-5.0972448 0.1213632-9.22358507 4.36906667-9.10222187 9.46631146 0.1213632 5.21860693 4.36906667 9.22358507 9.4663104 9.10222187zM737.90957014 757.90791147c1.09226667 0.48545173 2.30589653 0.72817813 3.6408896 0.72817707s2.54862187-0.2427264 3.64088853-0.72817707c3.2768-1.4563552 5.58269653-4.8545184 5.58269654-8.6167712 0-1.33499307-0.2427264-2.54862187-0.72817814-3.64088853-0.97090347-2.18453333-2.79134827-4.00497813-4.9758816-4.8545184-1.09226667-0.48545173-2.30589653-0.72817813-3.64088853-0.72817814s-2.54862187 0.2427264-3.6408896 0.72817814c-2.18453333 0.97090347-4.00497813 2.79134827-4.8545184 4.9758816-0.48545173 1.09226667-0.72817813 2.30589653-0.72817707 3.64088853 0 3.88361493 2.42725973 7.16041493 5.70405867 8.495408zM838.76219307 556.9308448c-0.48545173-0.72817813-1.09226667-1.33499307-1.8204448-1.941808-1.5777184-1.33499307-3.64088853-2.06317013-5.94678506-2.06317013-0.97090347 0-1.94180693 0.1213632-2.79134827 0.48545173-0.60681493 0.2427264-1.09226667 0.48545173-1.6990816 0.72817814-0.2427264 0.1213632-0.48545173 0.36408853-0.72817813 0.48545173-2.42725973 1.6990816-4.00497813 4.61179307-4.00497707 7.76722987 0 0.84954027 0.1213632 1.6990816 0.36408853 2.54862186v0.2427264c0.48545173 1.4563552 1.33499307 2.79134827 2.30589654 3.76225174 1.6990816 1.6990816 4.00497813 2.66998507 6.5536 2.66998506 2.06317013 0 4.00497813-0.72817813 5.46133333-1.941808 1.94180693-1.4563552 3.2768-3.76225173 3.51952533-6.4322368 0-0.36408853 0.1213632-0.72817813 0-1.09226666 0-1.5777184-0.48545173-3.1554368-1.2136288-4.36906667 0.36408853-0.36408853 0.2427264-0.60681493 0-0.84954027zM733.29777814 571.6157632c1.4563552 0.97090347 3.2768 1.5777184 5.21860693 1.4563552 2.18453333 0 4.24770347-0.84954027 5.82542187-2.18453333 2.06317013-1.6990816 3.2768-4.36906667 3.2768-7.16041493 0-3.1554368-1.6990816-5.94678507-4.24770347-7.64586667-0.48545173-0.36408853-0.97090347-0.60681493-1.5777184-0.84954027-0.60681493-0.2427264-1.09226667-0.36408853-1.6990816-0.48545173-0.60681493-0.1213632-1.21362987-0.1213632-1.82044373-0.1213632-0.97090347 0-1.94180693 0.1213632-2.79134827 0.48545173-0.60681493 0.2427264-1.09226667 0.48545173-1.6990816 0.72817814-0.2427264 0.1213632-0.48545173 0.36408853-0.72817813 0.48545173-2.42725973 1.6990816-4.00497813 4.61179307-4.00497813 7.76722987 0 0.84954027 0.1213632 1.6990816 0.3640896 2.54862186V567.00397014c0.84954027 1.8204448 2.18453333 3.3981632 3.88361493 4.61179306z" fill="#231B3B" p-id="6598"></path><path d="M424.42903681 560.57173334c14.9276448 0 26.94257813-12.13629653 26.94257813-26.94257814v-26.33576213c0-14.9276448-12.13629653-26.94257813-26.94257813-26.94257813-14.9276448 0-27.06394027 12.13629653-27.06394027 26.94257813v26.33576213c0.1213632 14.8062816 12.25765973 26.94257813 27.06394027 26.94257814zM635.23650347 560.57173334c14.9276448 0 26.94257813-12.13629653 26.94257814-26.94257814v-26.33576213c0-14.9276448-12.13629653-26.94257813-26.94257814-26.94257813-14.9276448 0-26.94257813 12.13629653-26.94257706 26.94257813v26.33576213c-0.1213632 14.8062816 12.01493333 26.94257813 26.94257706 26.94257814zM453.31342187 639.21493334c9.7090368 15.65582187 36.2875264 41.99158507 74.51685974 41.99158506 37.98660693 0 64.92918507-26.2144 74.88094826-41.74885866 8.0099552-12.50038507 4.36906667-28.88438507-8.00995626-37.01570454-12.37902187-8.1313184-29.00574827-4.61179307-37.2584288 7.52450454-0.1213632 0.1213632-11.77220693 17.11217813-29.4912 17.11217706-17.23354027 0-28.0348448-15.65582187-28.76302294-16.74808853-7.88859307-12.50038507-24.3939552-16.2626368-37.01570346-8.495408-12.8644736 8.0099552-16.74808853 24.6366816-8.85949654 37.37979307z" fill="#592B0C" p-id="6599"></path><path d="M744.70589654 253.03798507c-18.32580693-18.44717013-35.55934827-14.8062816-42.11294827-12.25765867-6.3108736 2.30589653-21.2385184 10.43721493-22.8162368 33.9816288-1.21362987 17.71899307-6.18951147 33.49617813-15.65582293 48.66654827-33.98162987-98.91081493-129.97973333-191.5107552-162.38364373-207.773392-21.3598816-10.80130347-37.01570347-4.9758816-44.4188448-0.48545173-7.52450347 4.49042987-20.38897813 15.89854827-21.1171552 41.02068053-2.66998507 91.02222187-51.21517013 181.19490347-80.82773334 232.53143787-8.1313184-15.29173333-17.47626667-32.16118507-27.42802986-47.21019307-9.5876736-14.44219307-21.84533333-16.6267264-28.39893334-16.62672533-8.1313184 0-19.9035264 3.1554368-29.85528853 18.08308053-87.86678507 131.80017813-105.1003264 255.10494827-50.60835627 358.8702816 1.33499307 3.3981632 32.16118507 78.8859264 126.0961184 129.6156448 53.39970347 32.03982187 120.87751147 51.09380693 184.47170454 51.09380693h4.00497706c64.68645973-0.84954027 124.3970368-18.44717013 181.9230816-53.763792 2.54862187-1.4563552 62.3805632-36.53025173 112.8675552-123.91158506 99.51762987-167.48088853 8.3740448-358.6275552-83.74044373-451.83431147zM295.05611841 720.89220694c-75.85185173-104.6148736-48.18109653-235.9296 3.64088853-323.18957014 7.16041493 12.74311147 13.71401493 25.36485973 19.05398613 35.9234368 2.66998507 5.21860693 5.0972448 9.8304 7.03905174 13.4712896 5.70405973 10.80130347 16.99081493 17.59762987 29.1271104 17.59762987 12.37902187 0.2427264 23.54441493-6.5536 29.36983786-17.23354133 2.66998507-4.7331552 6.06814827-10.67994027 10.31585174-17.8403552 28.88438507-49.2733632 87.74542187-149.39780693 95.63401493-257.77493334 36.65161493 29.2484736 120.9988736 121.96977813 131.80017707 201.82660694 1.5777184 12.01493333 9.7090368 21.96669653 21.11715626 26.0930368 11.5294816 4.12634027 24.27259307 1.4563552 33.25345174-6.91768854 25.85031147-24.02986667 42.8411264-49.88017813 51.70062186-78.4004736 61.89511147 76.58002987 150.8541632 244.3036448 36.77297814 391.274192-2.06317013 2.66998507-3.3981632 5.33997013-6.06814827 8.85949654-21.84533333 29.2484736-42.96248853 48.30245973-56.0696896 58.61831146-54.1278816 36.89434027-108.1344 54.49197013-168.93724373 55.3415104-50.00154027 0.72817813-103.2798816-12.74311147-147.09191147-36.0448-8.85949653-4.12634027-16.6267264-10.0731264-24.7580448-14.92764373-6.91768853-4.12634027-13.71401493-8.61677013-20.14625173-13.2285632-17.23354027-12.74311147-32.5252736-27.18530347-45.7538368-43.44794133" fill="#592B0C" p-id="6600"></path></svg>