<?xml version="1.0" standalone="no"?><!DOCTYPE svg PUBLIC "-//W3C//DTD SVG 1.1//EN" "http://www.w3.org/Graphics/SVG/1.1/DTD/svg11.dtd"><svg t="1610007289843" class="icon" viewBox="0 0 1024 1024" version="1.1" xmlns="http://www.w3.org/2000/svg" p-id="5575" xmlns:xlink="http://www.w3.org/1999/xlink" width="16" height="16"><defs><style type="text/css"></style></defs><path d="M781.367 132.313c60.919 0 110.32 50.371 110.32 112.514V778.16c0 62.1-49.359 112.472-110.32 112.472H518.75c0-16.116-25.692-29.152-57.375-29.152S404 874.56 404 890.633H284.82c-60.918 0-110.32-50.372-110.32-112.43V244.827c0-62.143 49.36-112.514 110.32-112.514h496.547z" fill="#FBC92A" p-id="5576"></path><path d="M781.367 132.313c60.919 0 110.32 50.371 110.32 112.514v209.671c-49.485 4.894-86.062 22.022-86.062 42.399 0 20.376 36.577 37.547 86.063 42.356v34.72c0 62.143-49.36 112.515-110.32 112.515H284.82c-60.918 0-110.32-50.372-110.32-112.515V244.827c0-62.143 49.36-112.514 110.32-112.514h496.547z" fill="#FFEA85" p-id="5577"></path><path d="M346.625 686.487a114.75 58.345 0 1 0 229.5 0 114.75 58.345 0 1 0-229.5 0z" fill="#FBC92A" p-id="5578"></path><path d="M260.563 803.136a43.031 42.188 0 1 0 86.062 0 43.031 42.188 0 1 0-86.063 0zM490.063 803.136a71.719 42.188 0 1 0 143.437 0 71.719 42.188 0 1 0-143.438 0z" fill="#F4B828" p-id="5579"></path><path d="M674.506 477.448a27.21 27.21 0 0 1 39.024 1.224 28.519 28.519 0 0 1-1.182 39.74 238.022 238.022 0 0 1-330.918 0 28.519 28.519 0 0 1-1.182-39.74 27.21 27.21 0 0 1 38.982-1.224 183.642 183.642 0 0 0 255.276 0zM734.792 272.923h5.19a41.766 41.766 0 0 1 41.343 42.188v56.278c0 23.288-18.478 42.188-41.344 42.188h-5.189a41.766 41.766 0 0 1-41.344-42.188v-56.278c0-23.288 18.52-42.188 41.344-42.188z m-380.995 0h5.189a41.766 41.766 0 0 1 41.344 42.188v56.278c0 23.288-18.52 42.188-41.344 42.188h-5.19a41.766 41.766 0 0 1-41.343-42.188v-56.278c0-23.288 18.478-42.188 41.344-42.188z" fill="#FBC92A" p-id="5580"></path></svg>