<?xml version="1.0" standalone="no"?><!DOCTYPE svg PUBLIC "-//W3C//DTD SVG 1.1//EN" "http://www.w3.org/Graphics/SVG/1.1/DTD/svg11.dtd"><svg t="1610007075457" class="icon" viewBox="0 0 1024 1024" version="1.1" xmlns="http://www.w3.org/2000/svg" p-id="3451" xmlns:xlink="http://www.w3.org/1999/xlink" width="16" height="16"><defs><style type="text/css"></style></defs><path d="M629.873778 73.358222c-155.022222 31.061333-167.822222-32.398222-322.759111-1.336889a338.488889 338.488889 0 0 0-106.979556 42.410667 73.415111 73.415111 0 0 0-34.133333 77.027556l65.024 326.656a73.244444 73.244444 0 0 0 102.4 51.968 320.113778 320.113778 0 0 1 69.063111-22.499556c155.022222-31.061333 167.822222 32.398222 322.759111 1.336889a444.615111 444.615111 0 0 0 141.937778-60.529778 73.045333 73.045333 0 0 0 32.768-76.401778l-65.137778-324.551111a73.159111 73.159111 0 0 0-104.789333-50.972444 377.486222 377.486222 0 0 1-100.124445 36.977778z" fill="#FE7B43" p-id="3452"></path><path d="M373.248 959.345778l-25.059556 6.599111a45.511111 45.511111 0 0 1-55.267555-32.142222l-206.108445-782.222223a45.511111 45.511111 0 0 1 32.142223-55.267555l25.059555-6.599111a45.511111 45.511111 0 0 1 55.267556 32.142222l206.108444 782.222222a45.511111 45.511111 0 0 1-32.142222 55.267556z" fill="#FFC152" p-id="3453"></path><path d="M273.976889 549.546667l-7.224889 1.820444a19.171556 19.171556 0 0 1-23.352889-13.681778L148.565333 171.662222a19.171556 19.171556 0 0 1 13.681778-23.352889l7.224889-1.820444a19.171556 19.171556 0 0 1 23.352889 13.681778l94.862222 366.023111a19.114667 19.114667 0 0 1-13.710222 23.352889z" fill="#FFFFFF" p-id="3454"></path></svg>