<?xml version="1.0" standalone="no"?><!DOCTYPE svg PUBLIC "-//W3C//DTD SVG 1.1//EN" "http://www.w3.org/Graphics/SVG/1.1/DTD/svg11.dtd"><svg t="1609516993155" class="icon" viewBox="0 0 1024 1024" version="1.1" xmlns="http://www.w3.org/2000/svg" p-id="1791" width="16" height="16" xmlns:xlink="http://www.w3.org/1999/xlink"><defs><style type="text/css"></style></defs><path d="M262.7 446.6H202c0 68.2 24 126.3 72 174.3 48 48 105.5 72 172.6 72v-62.4c-50.9 0-94.2-17.9-130.1-53.8-35.9-35.9-53.8-79.3-53.8-130.1z" fill="#A5A5A5" p-id="1792"></path><path d="M727.6 673.5c54.2-67.1 81.3-142.7 81.3-227.1 0-99.4-35.6-184.3-106.7-254.8S545.9 85.9 446.5 85.9c-99.4 0-184.4 35.3-254.9 105.8S85.8 347.1 85.8 446.6c0 99.4 35.3 184.4 105.8 254.9s155.5 105.8 254.9 105.8c85.5 0 161.2-26.6 227.1-79.8l210.7 210.7 53.9-53.9-210.6-210.8z m-80.4-27c-55.7 55.1-122.6 82.7-200.8 82.7-78.1 0-144.7-27.6-199.9-82.7-55.2-55.2-82.7-121.8-82.7-199.9 0-78.1 27.6-144.8 82.7-199.9 55.2-55.1 121.8-82.7 199.9-82.7 78.1 0 145.1 27.6 200.8 82.7 55.7 55.2 83.6 121.8 83.6 199.9 0 78.1-27.8 144.7-83.6 199.9z" fill="#A5A5A5" p-id="1793"></path></svg>