<?xml version="1.0" standalone="no"?><!DOCTYPE svg PUBLIC "-//W3C//DTD SVG 1.1//EN" "http://www.w3.org/Graphics/SVG/1.1/DTD/svg11.dtd"><svg t="1609575392167" class="icon" viewBox="0 0 1024 1024" version="1.1" xmlns="http://www.w3.org/2000/svg" p-id="4359" xmlns:xlink="http://www.w3.org/1999/xlink" width="32" height="32"><defs><style type="text/css"></style></defs><path d="M21.333333 192.426667m85.333334 0l600.32 0q85.333333 0 85.333333 85.333333l0 468.266667q0 85.333333-85.333333 85.333333l-600.32 0q-85.333333 0-85.333334-85.333333l0-468.266667q0-85.333333 85.333334-85.333333Z" fill="#EEFCFF" p-id="4360"></path><path d="M706.986667 853.333333H106.666667a106.666667 106.666667 0 0 1-106.666667-106.666666V277.333333a106.666667 106.666667 0 0 1 106.666667-106.666666h600.32a106.666667 106.666667 0 0 1 106.666666 106.666666v469.333334a106.666667 106.666667 0 0 1-106.666666 106.666666zM106.666667 213.333333a64 64 0 0 0-64 64v469.333334a64 64 0 0 0 64 64h600.32a64 64 0 0 0 64-64V277.333333a64 64 0 0 0-64-64z" fill="#00B1F1" p-id="4361"></path><path d="M804.906667 533.333333a42.666667 42.666667 0 0 1 0-42.666666l92.586666-156.16 64-106.666667c14.08-23.68 41.386667-9.6 41.386667 21.333333v526.506667c0 30.72-27.306667 44.586667-41.386667 21.333333l-64-106.666666z" fill="#EEFCFF" p-id="4362"></path><path d="M979.2 830.08a42.666667 42.666667 0 0 1-36.266667-21.333333L786.56 544a64 64 0 0 1 0-64l156.373333-263.68a41.173333 41.173333 0 0 1 46.293334-21.333333A52.053333 52.053333 0 0 1 1024 248.106667v527.786666a52.053333 52.053333 0 0 1-34.773333 52.906667 37.76 37.76 0 0 1-10.026667 1.28z m2.133333-42.666667z m-1.92-549.12l-156.16 263.466667a21.333333 21.333333 0 0 0 0 21.333333l156.16 263.253334a21.333333 21.333333 0 0 0 1.92-9.6V248.106667a21.333333 21.333333 0 0 0-1.92-9.386667zM533.333333 499.84a18.133333 18.133333 0 0 1 0 24.32l-79.786666 90.026667-54.186667 62.08a21.333333 21.333333 0 0 1-36.693333-12.16V359.893333a21.333333 21.333333 0 0 1 35.626666-12.16l55.04 62.08z" fill="#00B1F1" p-id="4363"></path></svg>