<?xml version="1.0" standalone="no"?><!DOCTYPE svg PUBLIC "-//W3C//DTD SVG 1.1//EN" "http://www.w3.org/Graphics/SVG/1.1/DTD/svg11.dtd"><svg t="1610007221011" class="icon" viewBox="0 0 1126 1024" version="1.1" xmlns="http://www.w3.org/2000/svg" p-id="4639" xmlns:xlink="http://www.w3.org/1999/xlink" width="17.59375" height="16"><defs><style type="text/css"></style></defs><path d="M569.7024 324.3008m-51.2 0a51.2 51.2 0 1 0 102.4 0 51.2 51.2 0 1 0-102.4 0Z" fill="#438CFF" p-id="4640"></path><path d="M1076.3776 103.7312a71.8848 71.8848 0 0 0-80.5888 26.5728L793.7024 411.648v-179.2c0-72.5504-60.1088-131.5328-133.9904-131.5328H337.3056a38.4 38.4 0 0 0 0 76.8h322.4064c31.5392 0 57.1904 24.5248 57.1904 54.7328v559.104c0 30.208-25.6512 54.784-57.1904 54.784H134.0416c-31.5392 0-57.1904-24.576-57.1904-54.784V232.448c0-30.208 25.6512-54.7328 57.1904-54.7328a38.4 38.4 0 0 0 0-76.8C60.16 100.9152 0.0512 159.8976 0.0512 232.448v559.104c0 72.5504 60.1088 131.584 133.9904 131.584h525.6704c73.8816 0 133.9904-59.0336 133.9904-131.584v-179.2l202.0864 281.344a71.7312 71.7312 0 0 0 80.5888 26.5728c29.9008-9.6256 49.9712-37.2224 49.9712-68.608V172.3392c0-31.3856-20.0704-58.9312-49.9712-68.608z m-26.8288 733.184L816.1792 512l233.3696-324.9664v649.8816z" fill="#438CFF" p-id="4641"></path></svg>