<?xml version="1.0" standalone="no"?><!DOCTYPE svg PUBLIC "-//W3C//DTD SVG 1.1//EN" "http://www.w3.org/Graphics/SVG/1.1/DTD/svg11.dtd"><svg t="1610007142356" class="icon" viewBox="0 0 1024 1024" version="1.1" xmlns="http://www.w3.org/2000/svg" p-id="3606" xmlns:xlink="http://www.w3.org/1999/xlink" width="16" height="16"><defs><style type="text/css"></style></defs><path d="M822.59456 888.45312h-285.29152V292.76672a26.28096 26.28096 0 0 0-0.3072-3.072 105.7536 105.7536 0 0 0 77.44512-72.96512h205.44a26.81856 26.81856 0 1 0 0-53.63712h-204.04224a105.56928 105.56928 0 0 0-205.43488 0H205.46048a26.81856 26.81856 0 1 0 0 53.63712h206.336a105.78944 105.78944 0 0 0 72.15616 71.61344 26.55744 26.55744 0 0 0-0.44544 4.42368v595.6864H205.46048a26.81856 26.81856 0 1 0 0 53.63712h617.13408a26.81856 26.81856 0 1 0 0-53.63712zM461.312 187.2128a51.82464 51.82464 0 1 1 51.82464 51.67104A51.80928 51.80928 0 0 1 461.312 187.2128z" fill="#2966C1" p-id="3607"></path><path d="M274.32448 703.16544a251.76576 251.76576 0 0 1-173.94688-67.29728 40.90368 40.90368 0 0 1-7.12192-51.968l156.34432-249.1392a41.52832 41.52832 0 0 1 71.68 2.44736l0.256 0.56832 133.33504 264.58624a41.13408 41.13408 0 0 1-14.44352 53.47328 324.79232 324.79232 0 0 1-166.10304 47.32928z m-129.56672-99.93728c101.376 84.37248 221.98272 31.36 256.73216 13.01504L283.50976 382.11584z m614.98368 99.93728a324.80256 324.80256 0 0 1-166.144-47.3344 41.1392 41.1392 0 0 1-14.43328-53.46816l133.632-265.16992a41.52832 41.52832 0 0 1 71.68-2.44224l156.3392 249.14944a40.90368 40.90368 0 0 1-7.12192 51.97312 251.78624 251.78624 0 0 1-173.952 67.29216z m-127.17568-86.92736c34.75968 18.35008 155.32544 71.36256 256.73216-13.00992l-138.752-221.11232z" fill="#FD9A16" p-id="3608"></path></svg>