<?xml version="1.0" standalone="no"?><!DOCTYPE svg PUBLIC "-//W3C//DTD SVG 1.1//EN" "http://www.w3.org/Graphics/SVG/1.1/DTD/svg11.dtd"><svg t="1609571318864" class="icon" viewBox="0 0 1024 1024" version="1.1" xmlns="http://www.w3.org/2000/svg" p-id="9990" xmlns:xlink="http://www.w3.org/1999/xlink" width="32" height="32"><defs><style type="text/css"></style></defs><path d="M448.64 482.24c-96.768 4.608-174.976 56.768-174.976 121.92s78.208 114.56 175.04 109.824c96.832-4.608 174.976-66.048 174.976-131.2-0.896-64.256-79.104-105.216-174.976-100.544z m65.28 164.736c-29.824 39.104-88.512 57.728-145.28 26.048-27.008-14.848-26.048-43.712-26.048-43.712s-11.2-92.16 85.632-103.36c97.728-12.096 115.456 81.92 85.632 121.024z" fill="#EA5D5C" p-id="9991"></path><path d="M448.64 584.64a13.632 13.632 0 0 0-3.648 18.56c2.752 5.632 11.136 6.528 16.768 1.92 5.568-4.672 8.32-13.056 4.608-18.624-2.752-5.632-10.24-6.528-17.664-1.92z m-45.568 12.992a34.048 34.048 0 0 0-30.72 33.536c0 14.912 14.912 26.048 32.64 24.192 17.664-1.92 32.512-15.808 32.512-31.68 0-15.808-13.952-27.904-34.432-26.048z" fill="#EA5D5C" p-id="9992"></path><path d="M512 0C228.992 0 0 228.992 0 512c0 283.008 228.992 512 512 512 283.008 0 512-228.992 512-512 0-283.008-228.992-512-512-512z m197.376 626.56c-40.064 85.568-171.328 127.488-268.16 120-92.16-7.424-211.264-38.144-223.36-151.68 0 0-6.528-51.2 42.816-117.312 0 0 70.72-99.648 152.64-128.448 82.88-27.968 92.16 19.52 92.16 48.384-4.672 24.192-12.096 38.144 18.624 28.8 0 0 81.024-38.144 114.56-4.608 26.944 27.008 4.608 65.152 4.608 65.152s-11.2 12.16 12.096 16.768c21.44 3.712 94.08 37.248 54.016 122.88zM629.312 390.016a16.32 16.32 0 0 1-15.872-15.872c0-9.28 7.488-15.808 15.872-15.808 0 0 99.584-18.56 87.488 89.344v1.92a16.064 16.064 0 0 1-15.808 13.952 15.68 15.68 0 0 1-15.872-15.872c0-1.856 15.872-73.536-55.808-57.664z m168.448 103.296c-2.752 18.624-12.096 11.2-22.336 11.2-12.992 0-23.232-16.768-23.232-29.824 0-11.136 4.608-22.336 4.608-22.336 0.96-4.672 12.16-34.432-7.424-78.208-35.392-60.48-106.112-60.48-114.496-57.728-8.32 3.776-21.44 5.632-21.44 5.632a23.04 23.04 0 0 1-23.232-23.296c0-11.136 7.424-19.52 16.768-22.336 0 0 0 0.96 0.896 0.96 0.96 0 1.92 0.896 1.92 0.896 10.24-1.856 45.568-4.672 79.104 3.712 62.336 14.912 146.112 83.84 108.864 211.328z" fill="#EA5D5C" p-id="9993"></path></svg>