<?xml version="1.0" standalone="no"?><!DOCTYPE svg PUBLIC "-//W3C//DTD SVG 1.1//EN" "http://www.w3.org/Graphics/SVG/1.1/DTD/svg11.dtd"><svg t="1609571336666" class="icon" viewBox="0 0 1024 1024" version="1.1" xmlns="http://www.w3.org/2000/svg" p-id="10827" xmlns:xlink="http://www.w3.org/1999/xlink" width="32" height="32"><defs><style type="text/css"></style></defs><path d="M357.376 359.424c-15.872 0-31.744 10.24-31.744 26.112 0 15.872 15.872 26.112 31.744 26.112s26.112-10.752 26.112-26.112c0-15.36-10.752-26.112-26.112-26.112zM572.416 512c-10.24 0-20.992 10.752-20.992 20.992 0 10.752 10.752 20.992 20.992 20.992 15.872 0 26.112-10.24 26.112-20.992 0-10.752-10.24-20.992-26.112-20.992zM504.32 412.16c15.872 0 26.112-10.752 26.112-26.112 0-15.872-10.24-26.112-26.112-26.112-15.872 0-31.744 10.24-31.744 26.112 0 15.36 15.872 26.112 31.744 26.112z" fill="#1BB723" p-id="10828"></path><path d="M512 37.376C249.856 37.376 37.376 249.856 37.376 512s212.48 474.624 474.624 474.624 474.624-212.48 474.624-474.624S774.144 37.376 512 37.376zM425.472 627.712c-26.112 0-47.104-5.12-73.728-10.752l-73.216 36.864 20.992-62.976C246.784 553.984 215.552 506.88 215.552 449.024c0-99.84 94.72-178.688 209.92-178.688 103.424 0 193.536 62.976 211.968 147.456-6.656-0.512-13.312-1.024-19.968-1.024-99.84 0-178.688 74.24-178.688 166.4 0 15.36 2.56 30.208 6.656 44.032-7.168 0-13.312 0.512-19.968 0.512z m309.76 73.216l15.872 52.224-57.856-31.744c-20.992 5.12-41.984 10.752-62.976 10.752-99.84 0-178.688-68.096-178.688-152.576 0-83.968 78.848-152.576 178.688-152.576 94.208 0 178.176 68.608 178.176 152.576 0 48.128-31.232 90.112-73.216 121.344z" fill="#1BB723" p-id="10829"></path><path d="M688.128 512c-10.24 0-20.992 10.752-20.992 20.992 0 10.752 10.24 20.992 20.992 20.992 15.872 0 26.112-10.24 26.112-20.992 0-10.752-10.752-20.992-26.112-20.992z" fill="#1BB723" p-id="10830"></path></svg>