<?xml version="1.0" standalone="no"?><!DOCTYPE svg PUBLIC "-//W3C//DTD SVG 1.1//EN" "http://www.w3.org/Graphics/SVG/1.1/DTD/svg11.dtd"><svg t="1609570363249" class="icon" viewBox="0 0 1024 1024" version="1.1" xmlns="http://www.w3.org/2000/svg" p-id="9002" width="32" height="32" xmlns:xlink="http://www.w3.org/1999/xlink"><defs><style type="text/css"></style></defs><path d="M673.917132 801.54243l50.748133 70.213171-212.72505 151.549219-212.029871-151.549219 50.052953-70.213171 118.875763 84.811949V439.3537h86.897489v447.000679l118.180583-84.811949z" fill="#3C3C3C" p-id="9003"></path><path d="M989.528809 520.689749a216.89613 216.89613 0 0 1-216.89613 216.89613H641.938857V650.688391h130.693822a129.998642 129.998642 0 0 0 15.293958-259.302105l-41.710795-4.866259v-41.710794a182.137135 182.137135 0 0 0 0-19.465037A238.446707 238.446707 0 0 0 278.359766 278.071962l-4.866259 25.721656-25.721656 6.9518a173.794976 173.794976 0 0 0 47.272233 340.638153H382.636752v86.897488H295.044084a260.692464 260.692464 0 0 1-95.239647-503.310251 325.344196 325.344196 0 0 1 637.479973 78.555329 216.89613 216.89613 0 0 1 152.244399 208.553972z" fill="#3C3C3C" p-id="9004"></path></svg>