<?xml version="1.0" standalone="no"?><!DOCTYPE svg PUBLIC "-//W3C//DTD SVG 1.1//EN" "http://www.w3.org/Graphics/SVG/1.1/DTD/svg11.dtd"><svg t="1610007615124" class="icon" viewBox="0 0 1238 1024" version="1.1" xmlns="http://www.w3.org/2000/svg" p-id="18770" id="mx_n_1610007615131" width="29.015625" height="24" xmlns:xlink="http://www.w3.org/1999/xlink"><defs><style type="text/css"></style></defs><path d="M951.180387 371.480774s57.542194-201.94271 156.985807-192.016516c0 0 102.581677 8.885677 0 381.44 0 0-50.209032 209.325419-216.609033 318.150194l-97.36258-126.612646 156.985806-380.961032z" fill="#EB7305" p-id="18771"></path><path d="M890.235871 886.519742l-102.366968-133.252129 158.075871-383.636645c3.336258-11.577806 58.037677-196.046452 155.152516-196.046452 2.526968 0 5.086968 0.115613 7.613936 0.363355 0.545032 0.033032 15.046194 1.519484 28.259097 20.463484 25.434839 36.56671 42.033548 130.064516-23.452904 367.962839-0.462452 1.915871-52.653419 212.496516-218.970838 321.288258l-4.31071 2.85729z m-89.699097-134.936774l92.242581 119.989677c159.182452-107.107097 209.523613-309.908645 210.00258-311.989677 67.782194-246.205935 44.808258-330.487742 25.121033-358.845936-10.107871-14.484645-20.133161-15.772903-20.18271-15.772903a70.474323 70.474323 0 0 0-6.606452-0.330323c-89.864258 0-144.053677 186.467097-144.598709 188.349936l-0.181678 0.578064-155.796645 378.021162z" fill="#5B2005" p-id="18772"></path><path d="M242.968774 361.76929S185.410065 159.826581 85.966452 169.752774c0 0-102.532129 8.869161 0 381.423484 0 0 50.242065 209.325419 216.65858 318.150194l97.329549-126.612646-156.985807-380.944516z" fill="#EB7305" p-id="18773"></path><path d="M303.896774 876.791742l-4.327226-2.824258C133.252129 765.175742 81.127226 554.595097 80.59871 552.481032 15.178323 314.764387 31.744 221.266581 57.178839 184.716387c13.196387-18.977032 27.714065-20.446968 28.325161-20.496516 2.460903-0.231226 5.020903-0.379871 7.547871-0.379871 97.114839 0 151.832774 184.53471 155.169032 196.096L406.296774 743.572645l-102.4 133.219097zM93.051871 174.938839c-2.147097 0-4.343742 0.115613-6.540387 0.330322-0.396387 0.033032-10.636387 1.453419-20.843355 16.615226-19.290839 28.771097-41.587613 113.482323 25.666065 357.821936 0.528516 2.229677 50.869677 205.047742 210.052129 312.121806l92.226064-119.989677-155.895742-378.268904-0.066064-0.29729c-0.561548-1.866323-54.800516-188.333419-144.59871-188.333419z" fill="#5B2005" p-id="18774"></path><path d="M89.467871 575.521032c47.054452-9.298581 109.733161 55.576774 143.079226 150.131613 13.295484 37.706323 19.984516 74.669419 20.56258 106.875871-98.816-85.652645-146.332903-204.271484-163.641806-257.007484z" fill="#F4EB2F" p-id="18775"></path><path d="M257.453419 841.744516l-7.035871-6.077935c-100.864-87.419871-148.942452-210.13471-164.897032-258.840775l-1.469935-4.459354 4.624516-0.924904a54.338065 54.338065 0 0 1 10.041806-0.957935c48.375742 0 106.330839 64.677161 137.744516 153.748645 13.01471 36.864 20.232258 74.306065 20.810323 108.213677l0.181677 9.298581z m-162.469161-262.771613c16.780387 49.531871 62.282323 161.180903 153.616516 243.992774-1.651613-30.42271-8.48929-63.388903-19.984516-95.958709-30.637419-86.874839-88.922839-151.832774-133.632-148.034065z" fill="#592724" p-id="18776"></path><path d="M80.466581 176.177548s-4.39329 0.396387-10.471226 4.277678c-4.195097 64.132129 1.354323 150.990452 17.540129 245.214968 32.272516 187.755355 94.72 333.724903 139.429161 326.011871 44.725677-7.696516 54.833548-166.119226 22.544516-353.874581l-0.066064-0.478968-12.007226-29.150968c0 0.016516-57.55871-201.893161-156.96929-192z" fill="#FFFFFF" p-id="18777"></path><path d="M296.266323 862.323613s-2.097548-118.272-40.87742-216.592516c0 0-111.186581-358.978065 243.315613-442.714839 0 0 266.372129-79.558194 444.680258 170.562065 0 0 58.731355 82.663226 6.309161 262.705548 0 0-15.624258 72.984774-42.892387 126.331871 0 0-21.388387 71.184516-13.774451 114.357677 0 0-25.418323 30.703484-74.801549 61.737291-50.423742 31.710968-125.605161 63.735742-212.612129 63.900903-65.717677 0.148645-139.742968-17.094194-218.871742-69.186065-29.48129-19.422968-59.722323-38.928516-90.475354-71.101935z" fill="#FDE1C8" p-id="18778"></path><path d="M604.952774 1008.177548c-76.139355 0-150.594065-23.618065-221.250064-70.110967l-2.708645-1.800258c-28.754581-18.894452-58.483613-38.466065-88.724646-70.077936l-1.502967-1.602064-0.033033-2.163613c0-1.156129-2.526968-118.420645-40.514064-214.709678l-0.115613-0.396387c-0.528516-1.618581-50.291613-166.680774 25.418323-299.140129 43.008-75.264 117.627871-125.885935 221.762064-150.511484 3.253677-0.974452 42.859355-12.238452 101.342968-12.238451 99.228903 0 240.326194 32.107355 349.250064 184.947613 2.477419 3.451871 59.656258 86.874839 7.201033 267.247483-1.090065 5.12-16.384 74.586839-43.074065 127.042065-1.800258 6.210065-20.48 71.762581-13.477161 111.335226l0.429419 2.526967-1.635097 1.948904c-1.057032 1.288258-26.557935 31.744-76.139355 62.942967-38.300903 24.130065-117.297548 64.578065-215.552 64.759742h-0.677161z m-303.203097-148.149677c28.903226 29.844645 57.575226 48.739097 85.355355 67.005935l2.692129 1.767226c68.806194 45.303742 141.196387 68.277677 215.155613 68.277678h0.644129c95.463226-0.198194 172.345806-39.572645 209.655742-63.042065 41.25729-25.930323 65.635097-51.745032 71.89471-58.747871-6.507355-44.098065 13.477161-111.351742 14.336-114.275097l0.363355-0.908387c26.624-52.141419 42.264774-124.267355 42.413419-125.027096l0.082581-0.363355c50.952258-174.839742-4.938323-257.106581-5.499871-257.915871-106.19871-149.008516-243.612903-180.257032-340.232258-180.257033-58.07071 0-97.940645 11.660387-98.370065 11.776l-0.280774 0.082581c-101.095226 23.882323-173.336774 72.704-214.808774 145.209807-72.241548 126.282323-26.475355 283.928774-24.576 290.237935 35.790452 90.772645 40.629677 199.432258 41.174709 216.179613z" fill="#5B2005" p-id="18779"></path><path d="M365.089032 478.967742a4.178581 4.178581 0 0 1-3.451871-6.457807c0.924903-1.436903 23.320774-34.898581 58.731355-37.111741 23.221677-1.469935 46.179097 10.867613 68.228129 36.698838a4.112516 4.112516 0 0 1-0.462451 5.84671 4.129032 4.129032 0 0 1-5.84671-0.462452c-20.298323-23.700645-40.943484-35.080258-61.423484-33.792-31.314581 1.981935-52.108387 33.06529-52.306581 33.395613a4.096 4.096 0 0 1-3.468387 1.882839z" fill="#5B2005" p-id="18780"></path><path d="M358.812903 664.212645a95.232 68.029935 90 1 0 136.059871 0 95.232 68.029935 90 1 0-136.059871 0Z" fill="#FFFFFF" p-id="18781"></path><path d="M426.859355 763.590194c-39.803871 0-72.208516-44.577032-72.208516-99.394065s32.404645-99.410581 72.208516-99.410581c39.787355 0 72.175484 44.577032 72.175484 99.410581 0 54.817032-32.388129 99.394065-72.175484 99.394065z m0-190.464c-35.228903 0-63.884387 40.860903-63.884387 91.086451 0 50.209032 28.655484 91.069935 63.884387 91.069936 35.195871 0 63.851355-40.860903 63.851355-91.069936 0-50.225548-28.655484-91.086452-63.851355-91.086451z" fill="#5B2005" p-id="18782"></path><path d="M438.288516 598.940903c-29.712516 0-53.809548 33.725935-53.809548 75.346581 0 12.205419 2.097548 23.700645 5.747613 33.924129h27.202064l-15.872 21.124129c9.612387 12.601806 22.528 20.298323 36.731871 20.298323 29.712516 0 53.826065-33.725935 53.826065-75.346581s-24.113548-75.346581-53.826065-75.346581z m16.202323 65.271742a16.218839 16.218839 0 1 1 0.033032-32.437677 16.218839 16.218839 0 0 1-0.033032 32.437677z" fill="#5B2005" p-id="18783"></path><path d="M962.34529 585.975742c34.155355-153.38529-18.944-224.239484-18.944-224.239484-178.308129-250.136774-444.680258-170.611613-444.680258-170.611613-231.836903 54.767484-264.522323 227.245419-259.336258 340.050581l4.01342 55.89058s-6.639484-278.362839 223.892645-214.528c0 0 130.34529 118.255484 295.159742 5.202581-0.033032 0.016516 208.995097-76.155871 199.894709 208.235355z" fill="#E0BE0D" p-id="18784"></path><path d="M237.848774 587.462194l-3.996903-55.890581c-3.468387-75.032774 10.53729-140.568774 41.472-194.923355 43.008-75.445677 117.660903-126.199742 221.960258-150.891355 3.253677-0.941419 42.859355-12.172387 101.376-12.172387 99.195871 0 240.293161 32.074323 349.217032 184.931097 2.180129 2.85729 54.205935 74.570323 19.88542 228.64929l-10.96671-1.370838c2.659097-82.597161-13.01471-142.071742-46.575484-176.722581-22.511484-23.238194-52.686452-35.047226-89.633032-35.047226a184.650323 184.650323 0 0 0-55.642839 8.753548c-48.061935 32.817548-98.00671 49.44929-148.347871 49.449291-85.421419 0-143.459097-47.252645-152.030968-54.684903-21.867355-5.945806-42.429935-8.968258-61.175742-8.968259-38.812903 0-71.101935 12.899097-95.958709 38.366968-60.597677 62.034581-58.549677 178.820129-58.516645 179.976258l-11.065807 0.545033z m582.738581-224.520259c39.539613 0 73.282065 13.295484 97.610322 38.433033 26.83871 27.697548 42.941935 69.665032 48.111484 125.159226 10.45471-108.84129-26.92129-160.900129-27.350709-161.49471-106.297806-149.107613-243.712-180.389161-340.298323-180.389161-58.219355 0-97.973677 11.693419-98.353548 11.792516l-0.330323 0.099096C287.083355 246.800516 242.423742 395.643871 244.43871 517.070452c7.366194-38.449548 22.808774-84.859871 55.064774-117.908646 27.036903-27.664516 61.968516-41.703226 103.886451-41.703225 20.100129 0 42.099613 3.270194 65.370839 9.728l1.271742 0.346838 0.974452 0.891871c0.578065 0.528516 59.259871 52.686452 145.589677 52.686452 48.293161 0.016516 96.305548-16.136258 142.682839-47.91329l0.578064-0.412904 0.677162-0.231225c1.024-0.379871 26.723097-9.612387 60.052645-9.612388z" fill="#57250B" p-id="18785"></path><path d="M712.836129 469.107613a4.343742 4.343742 0 0 1-2.692129-0.974452 4.162065 4.162065 0 0 1-0.462452-5.863226c22.098581-25.81471 45.022968-38.168774 68.261162-36.682322 35.410581 2.213161 57.806452 35.691355 58.714838 37.111742a4.112516 4.112516 0 0 1-1.156129 5.731097 4.162065 4.162065 0 0 1-5.764129-1.172646c-0.21471-0.330323-21.124129-31.44671-52.372645-33.379096-20.463484-1.271742-41.059097 10.107871-61.357419 33.792a4.129032 4.129032 0 0 1-3.171097 1.436903z" fill="#5B2005" p-id="18786"></path><path d="M703.421935 654.402065a95.215484 68.029935 90 1 0 136.059871 0 95.215484 68.029935 90 1 0-136.059871 0Z" fill="#FFFFFF" p-id="18787" data-spm-anchor-id="a313x.7781069.0.i11" class=""></path><path d="M771.451871 753.812645c-39.787355 0-72.175484-44.610065-72.175484-99.41058 0-54.817032 32.388129-99.410581 72.175484-99.410581 39.803871 0 72.192 44.577032 72.192 99.410581 0 54.784-32.388129 99.410581-72.192 99.41058z m0-190.513548c-35.228903 0-63.867871 40.860903-63.867871 91.102968 0 50.209032 28.638968 91.069935 63.867871 91.069935s63.867871-40.860903 63.867871-91.069935c0-50.242065-28.638968-91.102968-63.867871-91.102968z" fill="#5B2005" p-id="18788"></path><path d="M706.196645 664.460387c0 41.620645 24.080516 75.346581 53.826065 75.346581 14.187355 0 27.119484-7.713032 36.748387-20.281807l-15.888516-21.190193h27.21858a100.632774 100.632774 0 0 0 5.731097-33.874581c0-41.604129-24.097032-75.363097-53.809548-75.363097-29.745548 0.016516-53.826065 33.775484-53.826065 75.363097z m21.388387-26.293677a16.185806 16.185806 0 0 1 16.202323-16.185807 16.218839 16.218839 0 1 1-16.202323 16.185807z" fill="#5B2005" p-id="18789"></path><path d="M513.816774 820.224s131.138065 27.664516 187.573678-5.995355c0 0-10.553806 125.060129-95.033807 126.364903 0 0-64.594581 16.615226-92.539871-120.369548z" fill="#8E1717" p-id="18790"></path><path d="M599.733677 945.36671c-19.422968 0-67.105032-12.07329-89.946838-124.316904a4.013419 4.013419 0 0 1 1.123096-3.782193 4.013419 4.013419 0 0 1 3.765678-1.090065c0.528516 0.082581 50.935742 10.603355 101.805419 10.603355 37.012645 0 64.908387-5.367742 82.811871-16.119742a4.162065 4.162065 0 0 1 4.327226 0.066065 4.129032 4.129032 0 0 1 1.948903 3.88129c-0.115613 1.255226-11.858581 128.379871-98.700387 130.130581a35.658323 35.658323 0 0 1-7.134968 0.627613z m-80.549161-119.890581c22.016 100.56671 63.504516 111.599484 80.532645 111.599484 3.484903 0 5.598968-0.512 5.598968-0.512a3.36929 3.36929 0 0 1 0.957936-0.115613c67.848258-1.040516 86.049032-88.030968 89.97987-114.820129-19.010065 8.91871-45.799226 13.444129-79.789419 13.444129-41.191226 0.016516-82.068645-6.755097-97.28-9.595871z" fill="#5B2005" p-id="18791"></path><path d="M614.713806 37.854968c-126.331871 49.713548-150.148129 306.258581-152.36129 334.468129 2.246194 1.882839 2.791226 1.981935 6.325678 4.740129 0 0 128.165161 111.434323 288.586322 8.951742l4.029936-3.716129C746.529032 48.028903 614.713806 37.854968 614.713806 37.854968z" fill="#7790D8" p-id="18792"></path><path d="M618.264774 433.515355c-89.946839 0-149.834323-51.133935-152.311742-53.314065a49.416258 49.416258 0 0 0-3.402322-2.477419c-0.891871-0.644129-1.684645-1.172645-2.890323-2.163613l-1.668129-1.370839 0.181677-2.163613c2.328774-29.250065 26.491871-287.397161 155.003871-337.986064l0.875355-0.346839 0.957936 0.082581c1.403871 0.099097 35.195871 3.187613 70.689032 48.42529 46.757161 59.524129 73.562839 160.437677 79.739871 299.94942l0.099097 1.932387-6.044903 5.483354c-45.683613 29.134452-93.184 43.949419-141.22942 43.94942z m-151.618064-63.108129l0.693677 0.495484c0.924903 0.644129 2.014968 1.403871 3.914323 2.890322 0.72671 0.644129 60.283871 51.381677 147.010064 51.398194 46.327742 0 92.226065-14.302968 136.472774-42.512516l2.345291-2.163613C742.862452 69.764129 626.489806 43.883355 615.225806 42.116129c-120.220903 48.606968-145.374968 290.749935-148.579096 328.291097z" fill="#4D2211" p-id="18793"></path><path d="M615.936 41.917935s-123.937032 104.348903-97.180903 318.563097c0 0 83.109161 114.506323 237.303742 9.249033-0.066065-2.427871-1.83329-291.972129-140.122839-327.81213z" fill="#A0B7E8" p-id="18794"></path><path d="M622.80671 52.075355s-111.137032 96.090839-87.139097 293.342968c0 0 74.520774 105.422452 212.77729 8.505806-0.066065-2.493935 4.409806-273.870452-125.638193-301.848774z" fill="#A0B7E8" p-id="18795"></path><path d="M615.836903 41.917935s-93.563871 90.92129-73.348129 277.570065c0 0 95.331097 100.682323 211.736774 8.951742 0 0-13.857032-254.827355-138.388645-286.521807z" fill="#D7E5F2" p-id="18796"></path><path d="M660.958968 103.143226s33.263484 20.77729 25.500903 259.864774c0 0 29.927226-6.375226 55.758452-27.648-0.016516 0-9.645419-130.906839-81.259355-232.216774z" fill="#FFFFFF" p-id="18797"></path><path d="M1102.765419 184.237419c-51.910194 0.825806-91.747097 58.913032-117.066322 111.02142a912.185806 912.185806 0 0 0-5.648516 50.456774c-11.396129 134.094452 7.729548 245.198452 42.644645 248.138322 34.931613 3.005935 72.505806-103.324903 83.852387-237.402838 5.648516-66.526968 3.79871-127.372387-3.782194-172.213678z" fill="#FDA11B" p-id="18798"></path><path d="M1100.750452 586.619871c-47.054452-9.315097-109.716645 55.560258-143.046194 150.131613-13.328516 37.67329-20.017548 74.652903-20.579097 106.842839 98.816-85.652645 146.365935-204.271484 163.625291-256.974452z" fill="#F4EB2F" p-id="18799"></path><path d="M932.814452 852.843355l0.148645-9.315097c0.627613-33.874581 7.828645-71.300129 20.826838-108.180645 31.430194-89.071484 89.38529-153.781677 137.794065-153.781678 3.402323 0 6.755097 0.346839 10.008774 0.990968l4.608 0.924903-1.453419 4.442839c-16.004129 48.706065-64.033032 171.404387-164.880516 258.824258l-7.052387 6.094452z m158.753032-262.95329c-44.296258 0-100.13729 63.719226-129.948903 148.248774-11.47871 32.569806-18.332903 65.486452-20.001033 95.925677 91.35071-82.844903 136.885677-194.444387 153.649549-244.042322-1.255226-0.066065-2.493935-0.132129-3.699613-0.132129z" fill="#592724" p-id="18800"></path><path d="M95.048078 242.102031a32.635871 22.31329 71.132 1 0 42.228622-14.431745 32.635871 22.31329 71.132 1 0-42.228622 14.431745Z" fill="#FFFFFF" p-id="18801"></path><path d="M300.973419 317.704258s-47.104 119.130839 31.397162 43.437419c0 0 57.228387-28.638968 89.566967-14.781935 0 0 28.622452-110.80671 70.177033-149.586581 0 0.016516-112.64 18.481548-191.141162 120.931097z" fill="#F4EB2F" p-id="18802"></path><path d="M748.444903 228.104258s12.833032 22.792258 14.781936 143.013161c0 0 170.19871-56.518194 201.067355 152.146581 0 0 42.446452-185.591742-215.849291-295.159742z" fill="#F4EB2F" p-id="18803"></path><path d="M743.407484 210.101677s256.924903 81.457548 220.88671 313.162323c0 0-5.747613-156.506839-115.612904-198.969806 0 0-66.477419 18.465032-51.695484-54.470194 0 0-24.030968-17.441032-48.045419-18.415484l-5.532903-41.306839z" fill="#FDFEB6" p-id="18804"></path><path d="M393.761032 932.946581a448.578065 448.578065 0 0 0 83.422968 43.553032 81.226323 81.226323 0 0 0-73.00129-116.983742 81.226323 81.226323 0 0 0-66.180129 34.105806c18.844903 15.178323 37.442065 27.268129 55.758451 39.324904z" fill="#EF6768" p-id="18805"></path><path d="M888.121806 879.351742a81.259355 81.259355 0 1 0-137.463741 86.528 432.491355 432.491355 0 0 0 74.520774-37.309936c29.844645-18.762323 50.919226-37.342968 62.942967-49.218064z" fill="#EF6768" p-id="18806"></path><path d="M671.314581 896.330323c-11.858581-19.389935-35.559226-32.652387-62.926452-32.652388-28.589419 0-53.231484 14.517677-64.462452 35.410581 28.903226 44.213677 61.489548 35.873032 61.489549 35.873032 30.736516-0.478968 51.678968-17.374968 65.899355-38.631225z" fill="#F54F4B" p-id="18807"></path></svg>