<?xml version="1.0" standalone="no"?><!DOCTYPE svg PUBLIC "-//W3C//DTD SVG 1.1//EN" "http://www.w3.org/Graphics/SVG/1.1/DTD/svg11.dtd"><svg t="1610007366032" class="icon" viewBox="0 0 1024 1024" version="1.1" xmlns="http://www.w3.org/2000/svg" p-id="8058" xmlns:xlink="http://www.w3.org/1999/xlink" width="16" height="16"><defs><style type="text/css"></style></defs><path d="M794.579786 653.932051m-195.918325 0a195.918326 195.918326 0 1 0 391.836651 0 195.918326 195.918326 0 1 0-391.836651 0Z" fill="#DEEDF5" p-id="8059"></path><path d="M794.579786 501.551131a152.38092 152.38092 0 1 1-152.38092 152.38092 152.38092 152.38092 0 0 1 152.38092-152.38092m0-43.537405a195.918326 195.918326 0 1 0 195.918326 195.918325 195.918326 195.918326 0 0 0-195.918326-195.918325z" fill="#40A9F6" p-id="8060"></path><path d="M228.593512 828.081674m-195.918326 0a195.918326 195.918326 0 1 0 391.836652 0 195.918326 195.918326 0 1 0-391.836652 0Z" fill="#DEEDF5" p-id="8061"></path><path d="M228.593512 675.700754a152.38092 152.38092 0 1 1-152.38092 152.38092 152.38092 152.38092 0 0 1 152.38092-152.38092m0-43.537405a195.918326 195.918326 0 1 0 195.918326 195.918325 195.918326 195.918326 0 0 0-195.918326-195.918325z" fill="#40A9F6" p-id="8062"></path><path d="M424.511838 849.850377h-43.537406V196.789291a21.768703 21.768703 0 0 1 15.455779-21.768702l565.986274-174.149623a21.768703 21.768703 0 0 1 19.156459 3.482992A21.768703 21.768703 0 0 1 990.498112 22.639669v653.061085h-43.537406V52.027418L424.511838 212.898132z" fill="#40A9F6" p-id="8063"></path><path d="M396.321368 306.634166l565.942736-174.106085 12.799998 41.599991-565.942737 174.106085z" fill="#40A9F6" p-id="8064"></path></svg>